<svg preserveAspectRatio="none" overflow="visible" style="display: block;" width="38" height="38" viewBox="0 0 38 38" fill="none" xmlns="http://www.w3.org/2000/svg">
<g id="logo">
<path id="Vector" d="M19 2.375L34.4375 7.71875V19.5938C34.4375 27.3125 27.3125 33.25 19 35.625C10.6875 33.25 3.5625 27.3125 3.5625 19.5938V7.71875L19 2.375Z" stroke="url(#paint0_linear_0_47)" stroke-width="2" stroke-linejoin="round"/>
<path id="Vector_2" opacity="0.55" d="M19 3.62188L33.3569 8.59156V19.6353C33.3569 26.8137 26.7306 32.3356 19 34.5444C11.2694 32.3356 4.64313 26.8137 4.64313 19.6353V8.59156L19 3.62188Z" stroke="url(#paint1_linear_0_47)" stroke-width="0.45" stroke-linejoin="round"/>
<path id="Vector_3" d="M8.75781 10.1947H13.0328V13.8938H16.0016V18.1688H13.0328V21.8678H8.75781V18.1688H5.78906V13.8938H8.75781V10.1947Z" fill="url(#paint2_linear_0_47)"/>
<path id="Vector_4" d="M14.25 17.6937H16.3281L17.2781 13.8344L18.4656 20.3656L19.6531 15.6156L20.3656 17.6937H22.1469" stroke="url(#paint3_linear_0_47)" stroke-width="1.3" stroke-linecap="round" stroke-linejoin="round"/>
<path id="Vector_5" d="M23.5006 14.345H22.895C22.5343 14.345 22.2419 14.6374 22.2419 14.9981V18.3469C22.2419 18.7076 22.5343 19 22.895 19H23.5006C23.8613 19 24.1538 18.7076 24.1538 18.3469V14.9981C24.1538 14.6374 23.8613 14.345 23.5006 14.345Z" fill="url(#paint4_linear_0_47)"/>
<path id="Vector_6" d="M26.125 11.5188H25.5194C25.1587 11.5188 24.8663 11.8112 24.8663 12.1719V18.3469C24.8663 18.7076 25.1587 19 25.5194 19H26.125C26.4857 19 26.7781 18.7076 26.7781 18.3469V12.1719C26.7781 11.8112 26.4857 11.5188 26.125 11.5188Z" fill="url(#paint5_linear_0_47)"/>
<path id="Vector_7" d="M28.7494 9.19125H28.1438C27.783 9.19125 27.4906 9.48366 27.4906 9.84438V18.3469C27.4906 18.7076 27.783 19 28.1438 19H28.7494C29.1101 19 29.4025 18.7076 29.4025 18.3469V9.84438C29.4025 9.48366 29.1101 9.19125 28.7494 9.19125Z" fill="url(#paint6_linear_0_47)"/>
<path id="Vector_8" d="M28.9869 26.2734C31.1675 26.2734 32.9353 24.5057 32.9353 22.325C32.9353 20.1443 31.1675 18.3766 28.9869 18.3766C26.8062 18.3766 25.0384 20.1443 25.0384 22.325C25.0384 24.5057 26.8062 26.2734 28.9869 26.2734Z" stroke="url(#paint7_linear_0_47)" stroke-width="2.24"/>
<path id="Vector_9" d="M26.1962 25.1156L23.1562 28.1438" stroke="url(#paint8_linear_0_47)" stroke-width="2.9" stroke-linecap="round"/>
<path id="Vector_10" d="M26.1844 22.325H27.3125L27.9656 20.5437L28.8562 23.6312L29.5094 21.85H30.7562" stroke="url(#paint9_linear_0_47)" stroke-width="1.05" stroke-linecap="round" stroke-linejoin="round"/>
</g>
<defs>
<linearGradient id="paint0_linear_0_47" x1="3.5625" y1="2.375" x2="34.4375" y2="35.625" gradientUnits="userSpaceOnUse">
<stop stop-color="#1E6FE6"/>
<stop offset="0.5" stop-color="#12A9C6"/>
<stop offset="1" stop-color="#3FC96C"/>
</linearGradient>
<linearGradient id="paint1_linear_0_47" x1="3.5625" y1="2.375" x2="34.4375" y2="35.625" gradientUnits="userSpaceOnUse">
<stop stop-color="#1E6FE6"/>
<stop offset="0.5" stop-color="#12A9C6"/>
<stop offset="1" stop-color="#3FC96C"/>
</linearGradient>
<linearGradient id="paint2_linear_0_47" x1="3.5625" y1="2.375" x2="34.4375" y2="35.625" gradientUnits="userSpaceOnUse">
<stop stop-color="#1E6FE6"/>
<stop offset="0.5" stop-color="#12A9C6"/>
<stop offset="1" stop-color="#3FC96C"/>
</linearGradient>
<linearGradient id="paint3_linear_0_47" x1="3.5625" y1="2.375" x2="34.4375" y2="35.625" gradientUnits="userSpaceOnUse">
<stop stop-color="#1E6FE6"/>
<stop offset="0.5" stop-color="#12A9C6"/>
<stop offset="1" stop-color="#3FC96C"/>
</linearGradient>
<linearGradient id="paint4_linear_0_47" x1="3.56249" y1="2.375" x2="34.4375" y2="35.625" gradientUnits="userSpaceOnUse">
<stop stop-color="#1E6FE6"/>
<stop offset="0.5" stop-color="#12A9C6"/>
<stop offset="1" stop-color="#3FC96C"/>
</linearGradient>
<linearGradient id="paint5_linear_0_47" x1="3.56252" y1="2.375" x2="34.4375" y2="35.625" gradientUnits="userSpaceOnUse">
<stop stop-color="#1E6FE6"/>
<stop offset="0.5" stop-color="#12A9C6"/>
<stop offset="1" stop-color="#3FC96C"/>
</linearGradient>
<linearGradient id="paint6_linear_0_47" x1="3.56249" y1="2.375" x2="34.4375" y2="35.625" gradientUnits="userSpaceOnUse">
<stop stop-color="#1E6FE6"/>
<stop offset="0.5" stop-color="#12A9C6"/>
<stop offset="1" stop-color="#3FC96C"/>
</linearGradient>
<linearGradient id="paint7_linear_0_47" x1="3.56249" y1="2.375" x2="34.4375" y2="35.625" gradientUnits="userSpaceOnUse">
<stop stop-color="#1E6FE6"/>
<stop offset="0.5" stop-color="#12A9C6"/>
<stop offset="1" stop-color="#3FC96C"/>
</linearGradient>
<linearGradient id="paint8_linear_0_47" x1="3.5625" y1="2.37499" x2="34.4375" y2="35.625" gradientUnits="userSpaceOnUse">
<stop stop-color="#1E6FE6"/>
<stop offset="0.5" stop-color="#12A9C6"/>
<stop offset="1" stop-color="#3FC96C"/>
</linearGradient>
<linearGradient id="paint9_linear_0_47" x1="3.5625" y1="2.37499" x2="34.4375" y2="35.625" gradientUnits="userSpaceOnUse">
<stop stop-color="#1E6FE6"/>
<stop offset="0.5" stop-color="#12A9C6"/>
<stop offset="1" stop-color="#3FC96C"/>
</linearGradient>
</defs>
</svg>
